<?xml version="1.0" encoding="UTF-8"?>
<!DOCTYPE svg PUBLIC "-//W3C//DTD SVG 1.1//EN" "http://www.w3.org/Graphics/SVG/1.1/DTD/svg11.dtd">
<!-- Creator: CorelDRAW 2017 -->
<svg xmlns="http://www.w3.org/2000/svg" xml:space="preserve" width="162.56mm" height="38.7581mm" version="1.1" style="shape-rendering:geometricPrecision; text-rendering:geometricPrecision; image-rendering:optimizeQuality; fill-rule:evenodd; clip-rule:evenodd"
viewBox="0 0 16256 3876"
 xmlns:xlink="http://www.w3.org/1999/xlink">
 <defs>
  <style type="text/css">
   <![CDATA[
    .fil0 {fill:#E31E24;fill-rule:nonzero}
   ]]>
  </style>
 </defs>
 <g id="Слой_x0020_1">
  <metadata id="CorelCorpID_0Corel-Layer"/>
  <path class="fil0" d="M102 2242c-17,-36 -46,-94 -102,-104 0,0 0,317 0,317 177,440 251,626 589,946 183,173 412,310 646,392 228,80 459,106 655,63 187,-41 342,-148 473,-287 128,-136 234,-305 324,-474 131,-245 230,-492 319,-714 33,-83 65,-162 96,-235 57,-134 113,-252 173,-360 59,-106 123,-203 196,-296 74,-95 158,-187 248,-270 85,-79 176,-149 268,-206 93,-58 188,-102 286,-129 94,-25 192,-35 294,-25 101,10 207,39 309,96 94,52 188,128 277,236 111,134 212,314 320,505 100,178 206,366 333,542 146,202 319,388 501,522 184,136 378,223 565,232 159,7 304,-50 422,-136 137,-101 241,-243 288,-368 80,-213 -1,-376 -103,-581l-29 -58c-54,-111 -111,-236 -153,-370 -42,-134 -70,-277 -68,-424 2,-157 39,-319 115,-461 67,-125 165,-234 298,-311 133,-77 302,-122 494,-140 212,-20 454,-8 707,26 259,36 527,95 755,183 177,68 330,155 431,261 119,125 178,285 204,456 27,179 18,368 4,548l-6 77c-28,343 -52,646 204,883 146,135 372,241 606,301 227,58 465,75 640,34 282,-66 392,-278 499,-485 19,-37 38,-73 59,-110 85,-151 187,-284 285,-411 51,-66 100,-130 141,-188 50,-71 98,-146 147,-223 74,-116 148,-233 243,-350 77,-95 167,-190 279,-278 112,-88 244,-169 405,-236 158,-66 344,-119 535,-156 198,-39 400,-61 577,-64 164,-2 304,13 423,49 105,32 198,83 282,159 200,178 361,482 523,787 19,36 1,-146 56,-137 56,9 137,59 118,23 -169,-319 -311,-492 -543,-699 -131,-117 -280,-199 -452,-251 -158,-48 -331,-68 -525,-65 -189,2 -403,26 -610,67 -198,39 -392,94 -557,163 -170,71 -308,155 -424,246 -116,91 -209,189 -288,287 -96,118 -171,237 -246,355 -46,72 -92,144 -145,220 -47,66 -93,126 -140,187 -99,128 -201,262 -289,418 -20,35 -39,73 -59,111 -101,195 -204,394 -449,452 -142,33 -334,20 -517,-27 -166,-43 -321,-113 -415,-199 -196,-182 -174,-463 -148,-782l6 -77c14,-183 23,-378 -5,-562 -29,-192 -99,-375 -246,-529 -142,-150 -348,-268 -584,-359 -263,-102 -563,-169 -849,-208 -272,-37 -533,-50 -765,-28 -211,20 -397,69 -543,153 -143,83 -248,200 -320,334 -80,149 -118,319 -121,484 -2,156 27,307 71,447 44,140 103,270 159,385l29 59c93,187 167,335 96,524 -44,117 -141,250 -269,344 -100,74 -217,122 -335,117 -103,-5 -218,-59 -333,-145 -155,-114 -307,-279 -438,-461 -122,-169 -225,-352 -323,-526 -112,-198 -217,-385 -338,-531 -115,-140 -246,-243 -380,-318 -162,-90 -326,-136 -477,-150 -132,-13 -252,-2 -366,29 -109,30 -212,77 -312,139 -96,60 -190,132 -278,213 -92,85 -178,179 -254,276 -74,95 -139,193 -200,303 -60,108 -117,227 -175,364 -32,75 -63,153 -96,236 -88,220 -187,466 -317,709 -89,166 -192,331 -317,463 -122,129 -263,228 -429,264 -153,34 -327,15 -497,-45 -175,-61 -348,-166 -490,-300 -357,-337 -448,-720 -647,-1138z"/>
 </g>
</svg>
