<?xml version="1.0" encoding="UTF-8"?>
<!DOCTYPE svg PUBLIC "-//W3C//DTD SVG 1.1//EN" "http://www.w3.org/Graphics/SVG/1.1/DTD/svg11.dtd">
<!-- Creator: CorelDRAW 2017 -->
<svg xmlns="http://www.w3.org/2000/svg" xml:space="preserve" width="92.6192mm" height="80.4809mm" version="1.1" style="shape-rendering:geometricPrecision; text-rendering:geometricPrecision; image-rendering:optimizeQuality; fill-rule:evenodd; clip-rule:evenodd"
viewBox="0 0 20454 17773"
 xmlns:xlink="http://www.w3.org/1999/xlink">
 <defs>
  <style type="text/css">
   <![CDATA[
    .fil0 {fill:#FEFEFE}
   ]]>
  </style>
 </defs>
 <g id="Слой_x0020_1">
  <metadata id="CorelCorpID_0Corel-Layer"/>
  <path class="fil0" d="M15478 17773l2413 0c62,-165 125,-329 458,-943 333,-614 937,-1677 1332,-2536 395,-859 582,-1513 684,-2183 101,-670 117,-1356 43,-2096 -74,-740 -238,-1535 -448,-2240 -210,-705 -467,-1321 -884,-1971 -417,-651 -993,-1336 -1671,-1948 -678,-612 -1457,-1149 -2201,-1511 -744,-362 -1453,-549 -2341,-701 -888,-152 -1955,-269 -2781,-428 -826,-160 -1410,-362 -1983,-561 -573,-199 -1134,-393 -1663,-522 -530,-129 -1028,-191 -1714,-58 -686,132 -1558,460 -2263,884 -705,425 -1243,947 -1624,1389 -382,443 -608,806 -834,1169l15478 0 0 14257z"/>
 </g>
</svg>
