<?xml version="1.0" encoding="UTF-8"?>
<!DOCTYPE svg PUBLIC "-//W3C//DTD SVG 1.1//EN" "http://www.w3.org/Graphics/SVG/1.1/DTD/svg11.dtd">
<!-- Creator: CorelDRAW 2017 -->
<svg xmlns="http://www.w3.org/2000/svg" xml:space="preserve" width="31.8987mm" height="38.6895mm" version="1.1" style="shape-rendering:geometricPrecision; text-rendering:geometricPrecision; image-rendering:optimizeQuality; fill-rule:evenodd; clip-rule:evenodd"
viewBox="0 0 1483 1799"
 xmlns:xlink="http://www.w3.org/1999/xlink">
 <defs>
  <style type="text/css">
   <![CDATA[
    .str0 {stroke:#2B2A29;stroke-width:9.29945}
    .fil0 {fill:#FEFEFE}
    .fil2 {fill:#101010}
    .fil1 {fill:#FFD80E}
    .fil3 {fill:white}
   ]]>
  </style>
 </defs>
 <g id="Слой_x0020_1">
  <metadata id="CorelCorpID_0Corel-Layer"/>
  <g id="_2299141225808">
   <path class="fil0 str0" d="M99 939c20,40 50,85 83,122 33,37 67,67 104,98 37,31 77,62 108,92 31,31 54,61 72,95 18,34 32,73 44,114 12,42 22,87 40,132 18,45 43,90 74,125 31,34 67,58 101,69 33,11 63,8 92,2 28,-6 55,-17 80,-38 25,-21 49,-53 71,-95 22,-43 43,-96 66,-154 23,-58 48,-120 75,-172 27,-52 56,-94 99,-141 43,-47 100,-100 144,-152 44,-52 76,-102 98,-154 21,-52 31,-105 29,-161 -2,-57 -17,-118 -44,-180 -27,-62 -66,-126 -113,-177 -48,-52 -104,-92 -165,-124 -61,-33 -127,-58 -193,-74 -66,-16 -131,-23 -201,-21 -70,2 -144,14 -207,30 -63,16 -113,37 -169,67 -56,31 -117,71 -161,108 -44,36 -70,69 -94,109 -24,40 -45,88 -59,131 -33,102 -22,252 26,350z"/>
   <path class="fil1" d="M802 1275c18,-1 7,-1 21,-7l12 -5c6,-2 3,0 7,-3 6,-6 8,-5 14,-9 3,-2 5,-3 8,-4 -1,5 -1,2 -2,5 1,-2 3,-3 3,-6 1,-3 1,-4 2,-7 4,-11 7,-23 12,-34l1 -1c1,-2 0,-1 1,-4 1,-2 1,-1 1,-4l29 -80c3,-12 19,-50 24,-65l11 -28c5,-11 8,-23 13,-35 3,-9 7,-20 10,-28 1,-3 0,0 1,-3 6,-18 13,-36 18,-54 1,-2 2,-5 2,-7l9 -34c0,-2 0,-3 1,-5l8 -49c0,-5 1,-4 2,-7 0,-3 0,-7 0,-10 0,-3 2,-2 2,-8 0,-3 0,-6 0,-9 0,-6 1,-4 2,-7 1,-6 0,-13 0,-19 0,-5 1,-4 2,-8l0 -76c-1,-4 -1,-2 -2,-7 0,-3 0,-7 0,-10 -1,-4 -2,-1 -2,-8 0,-4 -1,-7 -2,-12l-2 -8c-1,-2 0,0 -1,-4 -1,-3 -3,-11 -5,-15 -3,-9 -8,-18 -13,-26 -1,-2 -1,-3 -3,-5 -2,-2 -3,-3 -5,-6 -8,-10 -19,-19 -30,-26l-38 -19c-9,-3 -19,-6 -29,-8 -5,-1 -11,-2 -16,-3 -3,-1 -5,0 -8,-1l-9 -1c-3,0 -4,-1 -7,-2l-8 -1c-5,-2 -13,0 -19,-1 -11,-3 -26,-1 -37,-1 -8,0 -26,3 -35,3 -4,0 -3,1 -7,2 -5,0 -5,1 -8,2 -2,0 -3,0 -4,0 -3,0 -1,1 -4,1l-8 2c-5,1 -10,2 -15,4 -3,1 -5,1 -7,2 -2,1 -5,2 -7,3l-40 17c-8,5 -16,9 -24,15 -5,3 -12,8 -17,12 -3,3 -2,2 -5,4 -2,1 -4,3 -5,4 -5,5 -11,9 -15,14 -5,5 -7,7 -14,15l-8 10c-2,2 -3,4 -4,6 -10,13 -19,26 -25,41 -1,2 -2,4 -3,7 -5,10 -12,31 -14,43l-5 23c0,3 0,7 0,10 -1,3 -2,2 -2,8 0,3 0,7 0,10 0,14 -1,14 -2,26 0,5 0,5 1,9 2,8 0,20 0,28 0,5 1,4 2,8 0,3 0,6 0,9 1,5 1,4 2,13 0,4 0,2 1,4l6 32c1,7 4,15 6,22l17 46c0,0 0,0 0,1l3 8c4,9 7,18 12,27l15 32c1,2 2,5 3,7l7 12c1,2 2,4 3,6 1,2 2,4 4,6 4,8 9,16 15,23l28 38c7,10 13,19 18,31l4 9c3,9 5,18 7,26 0,2 1,1 1,4 0,2 0,3 0,5 1,3 0,0 1,3 1,2 0,3 0,5 0,4 1,3 2,8l2 16c2,8 2,20 6,28 4,9 4,27 26,36 6,3 27,4 36,3 0,-14 1,-33 -1,-46 -1,-8 0,-16 -1,-24 0,-3 -2,-5 -2,-10 0,-3 0,-9 0,-12 -1,-4 -2,-5 -2,-10 0,-5 0,-6 -1,-10 -1,-5 0,-7 -1,-11 0,-3 -1,-1 -1,-4 0,-2 0,-5 0,-7l-3 -21c0,-6 -1,-5 -2,-9 -1,-6 -3,-14 -3,-21 0,-4 0,-2 -1,-5 -1,-2 0,-3 -1,-5l-3 -15c-1,-3 -1,-2 -1,-5 -1,-5 -3,-9 -3,-14 -1,-4 0,-2 -1,-5 -1,-3 -1,-6 -2,-10l-4 -14c-2,-9 -14,-44 -17,-55 -1,-4 -3,-9 -5,-13 -2,-3 -9,-1 -13,-1 -3,0 -3,0 -6,-1l-16 -4c-4,-1 -6,-2 -10,-4l-16 -10c-5,-3 -13,-12 -17,-17l-9 -14c0,0 0,0 0,-1l-5 -12c-1,-3 0,-4 -1,-6 -1,-3 -1,-1 -1,-5 0,-7 -2,-10 -1,-12l3 -17c3,-9 10,-19 21,-19 14,0 16,4 24,10 2,1 2,1 4,3l9 11c2,2 1,1 3,4 4,6 9,12 12,19l7 16c0,0 0,0 0,1 3,6 6,13 8,20l5 15c0,2 1,2 2,5 0,0 0,0 0,1l1 4c1,3 1,3 2,5 7,0 15,-3 19,-5 6,-3 12,-7 17,-12 4,-4 18,-20 17,-25 -1,-2 -11,-13 -14,-17l-3 -4c-1,-1 0,-1 -1,-2l-11 -25c-1,-2 0,-3 -1,-5 -1,-3 -1,-1 -1,-5 0,-2 0,-4 0,-6 0,-2 -1,-2 -1,-5 -2,-25 6,-60 28,-76 3,-2 4,-3 8,-4 7,-2 13,2 18,6 7,7 6,22 8,31 0,2 1,3 1,4 1,6 1,13 0,20 -1,35 -4,44 -13,72 -1,3 -5,11 -5,13 2,6 28,18 38,21 1,0 3,1 4,1 3,1 2,0 5,1 3,1 1,1 4,1 2,0 4,0 6,0 5,1 4,2 11,2 4,-7 5,-14 10,-19 1,-1 1,0 1,-2l4 -5c0,0 0,0 0,0l7 -7c0,0 0,0 0,-1 0,0 0,-1 1,-1l7 -9c0,0 0,0 0,-1l11 -16c2,-2 3,-4 5,-6 5,-5 11,-9 18,-12l3 -1c3,-1 8,0 11,0 3,1 6,2 9,3 4,2 1,0 3,3l7 8c7,13 5,31 0,44 -1,2 -1,3 -1,4 0,0 -1,1 -1,2 -2,4 -5,8 -9,12l-10 6c-1,0 -1,0 -2,1l-22 5c-7,0 -15,0 -23,0 -6,0 -11,1 -17,1l-3 0c0,0 0,0 -1,0 -3,1 -2,1 -3,4 -1,3 -1,2 -1,4l-10 52c0,5 -1,6 -2,10l-5 34c0,8 -2,13 -2,21 0,5 -2,5 -2,10 0,4 0,8 0,12 0,4 -1,6 -2,10 -1,7 0,15 0,23 0,7 -2,14 -2,21 0,14 -1,33 0,46 1,14 2,28 2,43 0,13 1,14 1,21 0,7 0,16 0,23z"/>
   <path class="fil2" d="M660 1578c1,-7 16,-11 24,-13 3,-1 5,-1 7,-2 3,-1 -1,0 1,0 0,0 1,-1 2,-1 1,0 3,-1 4,-1l98 -21c3,0 6,0 9,0 4,0 4,-1 8,-2l27 -1c12,0 23,-1 36,-1 13,0 43,0 23,17 -8,7 -3,3 -11,8 -19,11 -38,13 -57,16 -28,4 -74,7 -102,7 -12,0 -61,-1 -68,-5zm27 -63c2,-1 7,-2 9,-3 28,-9 70,-23 99,-27 23,-3 61,-7 86,-3 11,2 12,8 -2,14 -12,5 -34,9 -48,11 -26,4 -136,12 -143,8zm8 -51c1,-1 0,-1 2,-2l32 -11c5,-2 12,-4 17,-6l9 -3c11,-3 19,-5 29,-8 17,-5 41,-5 59,-5 13,0 25,-1 34,4 -9,10 -39,13 -53,17l-37 9c-22,5 -67,10 -91,4zm131 -92c9,1 20,0 29,2 10,1 15,3 26,5 7,1 6,1 10,5 8,7 7,13 -5,15l-42 3c-28,1 -54,2 -83,2l-48 0c3,-3 7,-2 12,-4 5,-2 6,-3 9,-6 8,-8 6,-15 7,-21l0 -1 83 1zm-157 -2c10,-2 35,-1 47,0 11,1 16,-3 13,8 -2,5 -7,10 -12,12 -7,2 -52,3 -62,3 -7,0 -34,-4 -29,-14l2 -2c3,-2 20,-4 26,-5 5,-1 11,0 15,-1zm74 -16c-2,-3 -1,-11 -1,-16 0,-1 0,-4 0,-4 1,-3 0,-2 2,-2 1,0 5,0 6,1 25,4 36,0 33,7 -9,17 -36,17 -40,15zm47 -59l0 14c0,4 -1,4 -4,4l-27 -1c-15,-2 -16,3 -16,-8 0,-3 0,-5 0,-8l16 -1 31 -1zm-59 57c0,2 0,2 -1,2 -3,1 -4,0 -9,0 -7,0 -25,-3 -32,-5 -17,-5 -32,-9 -44,-20 -4,-4 -11,-13 -12,-25l51 11 29 10c2,1 4,1 6,2 4,1 9,2 11,4l-1 22zm110 -63c3,-1 2,-1 6,-1 0,3 -11,19 -14,20 -6,2 -24,4 -32,3 0,-8 1,-10 2,-17l39 -6zm-208 1c-1,-2 0,-5 0,-7 4,0 9,6 14,9 3,2 3,2 4,4 -3,0 -5,0 -8,-1l-6 -2c-3,-1 -4,0 -5,-3zm-41 -140l10 20c1,2 1,3 2,5l1 2c4,12 5,16 8,26l4 18c0,4 0,2 1,5 2,5 -1,6 2,12l0 10c-3,-1 -2,0 -4,-3 -1,-2 -2,-3 -2,-4 -5,-4 -13,-28 -14,-35 -1,-4 -1,-1 -2,-5 0,-2 0,-5 0,-7 -2,-8 -1,-6 -2,-9 -3,-7 0,-4 -2,-8l-6 -22c0,-5 -3,-10 -3,-12 -1,-5 1,-3 1,-4 3,2 6,8 7,11zm-138 -169l1 1 1 2 1 1 1 0 23 32 36 40c1,1 3,2 4,3 3,2 4,4 7,7l11 10c1,2 1,2 3,4 3,2 4,4 7,7 5,5 5,6 9,11l8 16c0,1 1,1 1,2 1,3 1,2 2,5 5,10 6,16 10,25l6 21c0,2 0,4 1,6l3 18c0,3 1,3 1,5 1,2 0,4 1,6l7 27c2,6 6,13 9,18 3,6 10,13 11,16 2,1 4,1 4,4l1 1 1 1c0,2 2,16 -2,15 -3,-1 0,0 -2,-1 -5,-3 -14,-10 -17,-15l-1 -1 -1 -1 -1 -1 -1 -1 -1 -1c-1,0 -1,0 -1,-1l-1 -1 -1 -1 -1 -1 -1 -1c-6,-8 -13,-21 -16,-33l-10 -39c-1,-2 0,-4 -1,-6l-14 -52c-1,-2 -3,-7 -4,-9 -9,-18 -13,-22 -24,-37 -5,-8 -3,-3 -6,-7 -1,-1 -1,-2 -2,-4 -1,-1 -8,-9 -14,-16l-19 -19c-2,-2 -3,-4 -5,-6l-16 -21c-2,-3 -3,-5 -4,-8l-2 -2 -1 -1 -1 -1 -7 -15c-2,-4 -5,-13 -5,-16 5,0 5,5 10,12zm232 -22c12,-1 8,-1 20,-6 4,-1 9,-5 12,-8l10 -9c2,-2 3,-5 6,-7 2,-2 4,-5 5,-7 6,-9 3,-9 13,-2 4,3 10,7 15,9l5 2c10,4 11,4 23,7 3,1 2,1 4,1 2,0 4,0 6,0 3,0 2,1 4,1 2,1 4,0 6,1 0,2 0,5 0,7 -1,2 -1,1 -1,3l-7 34c0,8 -3,15 -3,19l-12 121 0 50c0,12 -1,11 1,21l1 44c0,11 1,9 1,14 0,9 2,26 -4,29 -4,2 -43,5 -47,3l-4 -82c-1,-6 -2,-1 -2,-14 0,-6 -2,-7 -2,-14 0,-9 -1,-5 -1,-9 -1,-2 0,-6 0,-8 0,-2 -1,-4 -1,-7 0,-3 0,-5 0,-8 0,-1 -1,-1 -1,-3 0,-2 0,-2 0,-4 0,-4 -1,-4 -2,-7 0,-3 0,-5 -1,-8 -1,-2 -1,-4 -2,-7 -1,-5 -1,-10 -3,-14l-18 -77c-1,-2 0,-2 -1,-3l-4 -13c-3,-10 -8,-29 -12,-38l-2 -6c-1,-2 -1,-4 0,-6zm-159 92c-5,-1 -9,-6 -14,-11l-29 -34c0,0 -1,-1 -1,-1l-3 -3c-6,-6 -5,-5 -8,-11l-4 -5c0,0 0,0 0,0 0,0 0,0 0,0 0,0 0,0 0,-1 -1,-2 -1,-2 -2,-4l-14 -22c-22,-38 -13,-31 -16,-46l-1 -3c0,-2 -1,-3 -1,-5l0 -95c0,-6 2,-8 2,-23 0,-10 1,-8 2,-16 0,-3 0,-3 1,-5 3,3 2,5 2,11l0 58c0,11 -1,12 2,21l2 21c0,4 1,2 1,4 1,2 0,3 1,5l3 14c1,4 0,1 1,4l2 7c2,7 11,27 14,35l48 81c1,1 1,2 2,4 1,1 1,1 1,2l3 5c0,0 0,0 0,1l4 6c1,2 1,2 2,5zm360 -187c2,-1 6,-1 9,-1 7,1 11,9 13,16 2,8 1,18 -2,26l-6 14 -7 6c0,0 -1,1 -1,1l-12 4c-2,0 -3,0 -5,0 -3,0 -3,1 -8,2 -12,1 -23,0 -36,1 -3,0 -5,-2 -4,-5 0,-1 3,-6 3,-6 7,-12 14,-15 20,-24 2,-3 3,-3 6,-8 7,-10 18,-23 30,-27zm-281 -17c4,-2 2,-1 9,1 7,2 14,11 18,16 14,19 14,20 22,39 0,0 0,0 0,1l2 6c1,2 1,2 2,4 1,3 1,2 2,4l11 30c1,4 -1,3 -1,3 -2,1 -20,-2 -23,-3l-1 0c0,0 0,0 -1,0 -13,-5 -27,-12 -36,-23 -1,-2 -1,-2 -2,-3 -3,-4 -2,-1 -5,-7l-4 -7c-1,-3 -2,-6 -3,-8 -2,-7 -1,-6 -3,-9 -1,-2 -1,0 -1,-5l0 -18c0,-7 3,-12 7,-16 4,-4 3,-2 8,-4zm137 49l-1 1 -1 1 -1 0 -1 -1 -1 -1 -1 -1 -1 -1 -1 -2 -3 -3c-1,-1 -1,-2 -2,-3l-16 -36c0,-4 -2,-4 -2,-9l0 -21c0,-6 1,-5 1,-9 2,-7 1,-8 4,-17 4,-12 18,-37 31,-24 3,4 4,5 6,10l1 4c2,6 0,33 0,41 0,15 -2,28 -5,42l-9 26zm120 356c-1,3 0,1 -1,4 -6,18 -5,17 -19,21l-40 5 0 -8c0,-7 0,-16 0,-23 0,-6 -1,-8 -1,-21 0,-16 0,-29 -2,-43 -1,-13 0,-32 0,-46 0,-7 1,-14 2,-21 0,-7 -1,-16 0,-23 0,-4 1,-6 2,-10 0,-4 0,-8 0,-12 0,-5 2,-4 2,-10 0,-8 1,-13 2,-21l5 -34c0,-4 1,-5 2,-10l10 -52c1,-2 1,-1 1,-4 1,-3 0,-3 3,-4 0,0 0,0 1,0l3 0c6,1 10,-1 17,-1 7,0 15,0 23,0l22 -5c1,0 1,0 2,-1l10 -6c4,-3 7,-7 9,-12 0,0 1,-2 1,-2 1,-2 1,-3 1,-4 5,-14 6,-32 0,-44l-7 -8c-2,-3 0,-1 -3,-3 -2,-1 -5,-2 -9,-3 -3,0 -7,-1 -11,0l-3 1c-7,3 -13,7 -18,12 -2,2 -3,4 -5,6l-11 16c0,0 0,0 0,1l-7 9c0,0 0,1 -1,1 0,0 0,0 0,1l-7 7c0,0 0,0 0,0l-4 5c-1,1 0,1 -1,2 -5,6 -7,13 -10,19 -7,0 -6,-1 -11,-2 -2,0 -4,0 -6,0 -3,0 -2,-1 -4,-1 -3,-1 -2,0 -5,-1 -1,0 -3,-1 -4,-1 -9,-3 -36,-16 -38,-21 -1,-2 4,-10 5,-13 9,-28 13,-37 13,-72 0,-6 1,-14 0,-20 0,-2 -1,-3 -1,-4 -1,-10 0,-25 -8,-31 -5,-4 -10,-9 -18,-6 -4,1 -5,2 -8,4 -21,15 -30,51 -28,76 0,3 1,3 1,5 0,2 0,4 0,6 0,4 1,2 1,5 0,2 0,3 1,5l11 25c1,1 0,1 1,2l3 4c2,4 13,15 14,17 1,5 -12,21 -17,25 -5,5 -11,9 -17,12 -4,2 -13,5 -19,5 -1,-2 -2,-3 -2,-5l-1 -4c0,0 0,0 0,-1 -1,-3 -1,-3 -2,-5l-5 -15c-2,-7 -5,-13 -8,-20 0,0 0,0 0,-1l-7 -16c-3,-7 -8,-13 -12,-19 -1,-2 -1,-2 -3,-4l-9 -11c-2,-2 -2,-1 -4,-3 -9,-6 -10,-10 -24,-10 -11,0 -19,10 -21,19l-3 17c0,2 1,5 1,12 0,5 1,2 1,5 1,3 0,3 1,6l5 12c0,0 0,0 0,1l9 14c4,5 12,14 17,17l16 10c4,2 6,3 10,4l16 4c3,1 3,1 6,1 3,0 11,-1 13,1 2,4 3,9 5,13 3,11 15,46 17,55l4 14c1,3 1,6 2,10 1,3 1,2 1,5 1,6 3,9 3,14 1,4 1,2 1,5l3 15c1,2 0,3 1,5 1,3 1,1 1,5 1,7 3,14 3,21 0,4 2,3 2,9l3 21c0,2 0,5 0,7 1,3 1,1 1,4 1,4 -1,7 1,11 1,4 1,5 1,10 0,5 1,6 2,10 1,3 0,9 0,12 0,5 1,7 2,10 1,8 -1,16 1,24 2,13 1,32 1,46 -9,1 -29,0 -36,-3 -22,-10 -22,-28 -26,-36 -3,-8 -3,-19 -6,-28l-2 -16c0,-5 -1,-4 -2,-8 0,-2 0,-2 0,-5 -1,-3 -1,0 -1,-3 0,-2 0,-3 0,-5 -1,-3 -1,-1 -1,-4 -2,-9 -4,-17 -7,-26l-4 -9c-5,-11 -11,-21 -18,-31l-28 -38c-6,-7 -10,-15 -15,-23 -1,-2 -2,-4 -4,-6 -1,-2 -2,-4 -3,-6l-7 -12c-1,-2 -2,-4 -3,-7l-15 -32c-5,-9 -8,-18 -12,-27l-3 -8c0,0 0,0 0,-1l-17 -46c-2,-7 -5,-15 -6,-22l-6 -32c-1,-2 -1,-1 -1,-4 0,-9 -1,-8 -2,-13 0,-3 0,-6 0,-9 0,-4 -2,-3 -2,-8 0,-8 2,-20 0,-28 -1,-4 -1,-3 -1,-9 0,-12 2,-12 2,-26 0,-3 0,-7 0,-10 0,-5 1,-4 2,-8 1,-3 0,-7 0,-10l5 -23c2,-12 9,-33 14,-43 1,-2 3,-5 3,-7 6,-15 15,-28 25,-41 2,-2 3,-4 4,-6l8 -10c6,-8 9,-9 14,-15 5,-5 10,-9 15,-14 2,-1 3,-3 5,-4 4,-2 3,-1 5,-4 4,-4 12,-8 17,-12 7,-5 16,-10 24,-15l40 -17c3,-1 5,-2 7,-3 3,-1 4,-1 7,-2 5,-2 10,-2 15,-4l8 -2c2,-1 1,-1 4,-1 1,0 2,0 4,0 4,-1 3,-1 8,-2 5,0 3,-1 7,-2 9,-1 27,-3 35,-3 11,0 26,-1 37,1 5,1 13,-1 19,1l8 1c4,0 4,1 7,2l9 1c3,1 5,0 8,1 5,2 11,2 16,3 10,3 20,5 29,8l38 19c11,7 22,16 30,26 2,2 3,3 5,6 2,2 1,3 3,5 6,8 10,17 13,26 1,4 4,11 5,15 1,3 0,2 1,4l2 8c1,5 2,8 2,12 0,7 1,4 2,8 1,3 0,7 0,10 0,5 1,3 2,7l0 76c-1,4 -2,3 -2,8 0,6 1,14 0,19 -1,3 -2,2 -2,7 0,3 0,6 0,9 0,5 -1,5 -2,8 0,3 0,7 0,10 -1,4 -1,2 -2,7l-8 49c0,2 0,3 -1,5l-9 34c-1,2 -2,5 -2,7 -5,18 -12,36 -18,54 -1,3 0,0 -1,3 -3,8 -7,19 -10,28 -4,12 -8,24 -13,35l-11 28c-5,15 -21,53 -24,65l-29 80c-1,2 -1,2 -1,4 -1,3 0,1 -1,4l-1 1c-5,10 -8,23 -12,34 -1,3 -1,4 -2,7 -1,2 -2,4 -3,6zm156 -248c-4,7 -7,12 -11,19 -9,14 -15,26 -22,42l-8 18c0,0 0,0 0,1l-1 2c-1,1 0,0 -1,2 -1,2 -1,4 -2,5l-15 41c0,0 0,0 0,1l-10 36 -1 2c0,7 -3,18 -5,24 -6,23 -12,41 -25,61 -9,14 -21,29 -36,36 -6,3 -25,11 -31,11 0,-3 3,-6 4,-9l1 -2c2,-3 4,-9 7,-11l11 -6c11,-6 22,-18 28,-29 1,-2 1,-1 1,-3 3,-5 7,-12 8,-18l1 -1c1,-3 2,-8 3,-11 1,-3 1,-6 2,-9 1,-3 0,-7 1,-9 0,-4 2,-8 3,-11 1,-4 1,-8 2,-12l5 -16c1,-2 1,-3 2,-5 1,-3 3,-7 4,-10l18 -36c4,-8 10,-18 14,-26l18 -36c1,-3 2,-5 4,-8l16 -36c2,-5 4,-10 6,-15l11 -30 21 -83c0,-3 5,-19 5,-27l3 -17c1,-9 1,-4 2,-8 1,-4 -1,-6 1,-10 1,-4 3,-22 4,-27 6,-34 4,-82 1,-119 -1,-7 -1,-12 -3,-18 -1,-6 -2,-11 -3,-18 -3,-15 -16,-48 -23,-60l-4 -7c-4,-7 -7,-12 -12,-19l-19 -22c5,2 33,29 36,34l7 8c4,4 6,7 10,12 3,4 6,7 9,12l8 12c12,17 28,53 32,73 1,3 2,5 2,8 1,3 1,6 2,9 1,6 1,14 2,19 2,9 1,30 1,41l-4 39c-7,42 -14,69 -29,109l-9 22c-7,17 -13,27 -20,43l-14 27c-2,4 -6,10 -7,14zm-343 278c3,4 3,4 7,8 3,1 3,2 5,3 1,1 5,2 5,2 10,4 23,5 34,3 5,-1 6,2 5,9 0,2 -1,2 -1,2 0,0 0,0 -1,0l-23 -3c-4,0 -17,-2 -20,-3 -3,-1 -11,-5 -14,-6l-18 -12c-6,-4 -12,-7 -17,-13 -9,-11 -7,-5 -8,-21 0,-4 -1,-4 -2,-8 0,-3 0,-7 0,-10 0,-3 -1,-4 -2,-8 0,-3 -1,-5 -2,-8 -1,-7 -10,-39 -13,-47 0,0 -2,-3 -2,-3l-8 -17c-4,-8 -10,-17 -15,-25l-8 -12c-11,-14 -20,-25 -28,-41l-28 -44c-3,-3 4,4 -1,-1 -2,-2 0,1 -2,-3 -2,-5 -8,-14 -12,-19l-26 -44c-6,-11 -12,-23 -16,-34l-1 -5c0,0 0,0 0,-1l-1 -4c0,0 -1,-1 -1,-2 -3,-7 -3,-11 -5,-15 -1,-2 0,-1 -1,-3l-5 -25c0,-4 0,-6 -1,-9 -2,-5 -1,-13 -1,-19 0,-10 -1,-12 -2,-18l0 -60c0,-12 1,-13 2,-18 0,-8 -1,-23 0,-30 1,-3 2,-3 2,-8 0,-14 3,-17 7,-28 5,-16 14,-29 21,-44 2,-5 5,-7 7,-12 1,-3 2,-3 4,-6l20 -30c3,-4 6,-9 8,-12l23 -27c17,-19 36,-38 56,-54l20 -15c9,-8 3,-3 14,-11 3,-2 8,-6 11,-8 11,0 21,-1 33,-1 6,0 3,-1 7,-2 6,-1 18,0 24,0 13,0 56,-1 65,0 3,0 3,1 7,2 8,1 16,-1 24,1l30 2 34 6c5,1 14,3 19,6 3,1 6,2 9,3l18 6c3,1 5,2 8,3 32,14 55,28 79,56 6,7 14,18 18,27 14,28 10,20 20,47 1,3 2,6 3,9 3,9 8,39 8,48 1,4 3,35 3,42 0,15 0,30 -1,44 -1,4 0,7 0,11 0,4 -1,6 -1,9 0,4 0,8 0,12 -1,4 -2,4 -2,9l-3 20c-2,6 -2,14 -3,20 -1,3 -1,6 -2,10l-2 8c-1,2 0,3 -1,5l-4 18c-1,3 0,2 -1,5 -1,4 -1,1 -1,4 0,2 0,3 -1,5 -1,2 -3,6 -3,9 -1,4 0,2 -1,5l-16 52c-1,2 0,2 -1,4 -1,2 -1,1 -2,4 0,2 -1,3 -2,4 -1,3 -2,4 -4,7 -5,13 -7,20 -9,26l-3 6c0,0 0,0 0,1l-7 17c-1,3 -2,6 -4,8 -1,2 -1,2 -2,4 0,0 0,0 0,1l-28 55c-1,3 -2,4 -4,7l-15 29 -12 39c-1,3 -1,1 -2,4l-7 32c-1,7 -7,20 -10,26 0,0 -1,1 -1,1 0,0 0,0 0,1 -1,3 -3,6 -5,8l-1 1 -1 2 -1 1c-1,4 -9,11 -12,12l-1 1 -1 1 -1 1 -4 2c0,-3 2,-8 3,-9l2 -5 2 -4 1 -2 1 -2 1 -3 2 -5 1 -3c1,-7 4,-12 6,-18l13 -36c1,-1 2,-3 2,-4l8 -22c1,-3 2,-5 3,-8l32 -87c1,-2 1,-4 2,-5l9 -22c0,0 0,0 0,-1l12 -33c1,-2 0,-3 1,-5 0,-2 1,-2 2,-4 1,-2 2,-6 3,-9l24 -71c0,-1 1,-2 2,-4l8 -28c1,-3 0,-2 1,-5 1,-3 1,-1 1,-4l5 -24c1,-8 1,-5 2,-11l3 -20c1,-17 4,-36 5,-54 0,-8 1,-15 1,-23 0,-27 2,-39 0,-69 -2,-21 -3,-24 -5,-42 -1,-5 -8,-27 -12,-33 0,0 -1,-2 -1,-2 -7,-14 -4,-8 -13,-21 -5,-8 -19,-21 -27,-27 -7,-5 -17,-12 -26,-15 -6,-2 -17,-9 -28,-12 -4,0 -2,0 -3,-2 -4,0 -6,-1 -10,-2l-22 -6c-10,-3 -32,-7 -42,-8 -4,0 -8,0 -12,-1 -4,0 -5,-1 -9,-1 -28,-1 -56,0 -83,5 -16,3 -41,8 -56,15 -2,1 -2,1 -4,1 -2,1 -5,2 -8,3 -3,1 -5,2 -7,3 -2,1 -2,1 -4,2 -1,1 -2,1 -3,2 -2,1 -4,2 -7,4l-14 8c-6,4 -23,13 -27,18 0,0 -1,2 -2,2l-38 35c-1,1 -2,2 -3,3 -1,2 -1,1 -2,3 -2,2 -3,3 -5,6l-18 26 -20 40c-3,6 -5,13 -7,19 -3,8 -4,18 -7,27l-5 27c0,7 -1,14 -1,21 -1,12 -1,30 1,42 1,7 0,15 1,21l2 20c0,2 1,2 1,4 0,2 0,4 0,6 0,7 1,4 2,8l5 27 39 104c3,8 13,28 17,37l20 35c1,3 3,5 4,6 1,1 -1,-1 1,1l30 41c1,1 1,2 2,3 2,2 3,4 4,6l12 21c4,8 6,16 9,24l4 17c1,4 0,6 1,10 1,4 0,6 2,9 1,4 0,6 1,10 0,2 1,1 2,4l2 15c1,3 1,1 1,4 0,2 0,3 0,5l11 32c2,3 3,3 4,7zm-63 -810l-46 41c0,0 0,0 0,0l-21 21c-4,5 -4,4 -11,12l-4 4c-4,4 -11,14 -15,17l-31 43c0,0 0,1 -1,1l-1 2c-1,1 -1,1 -2,3 0,0 0,0 0,1 0,0 0,0 0,1l-12 21c-1,2 -1,1 -2,2l-1 2c0,0 0,0 0,1l-3 6c-2,2 0,1 -3,2l0 -7 1 -1c0,-1 0,-1 1,-1l2 -12c0,0 0,0 0,-1l3 -12c3,-11 5,-14 8,-23 2,-6 13,-29 16,-34l30 -41c5,-5 15,-16 20,-20 3,-2 3,-3 5,-5 2,-2 4,-2 6,-4 2,-1 4,-3 6,-4l19 -11c5,-2 10,-4 15,-5l8 -2c5,-2 5,-1 8,-2l7 -1c-1,4 1,1 -2,3l-2 1c0,0 0,0 0,0zm80 -36c12,-2 17,-4 27,-6 3,-1 6,-1 9,-1 14,-3 45,-2 62,-1 5,0 13,2 18,2l34 7 32 10c8,2 44,19 51,23 6,4 29,17 31,21 -2,-1 -3,-1 -4,-2 -8,-5 -31,-15 -40,-17l-4 -1c-1,-1 -3,-1 -3,-2 -10,-4 -46,-12 -58,-14 -6,-1 -13,-1 -18,-3l-6 -1c-16,0 -10,-1 -19,-2 -7,-1 -13,-1 -20,-1l-39 -2c-13,0 -28,0 -41,0 -7,0 -35,2 -38,1 2,-6 21,-13 26,-14zm420 286c0,-12 -1,-21 -2,-32 -1,-10 -6,-22 -7,-28 -3,-14 -14,-36 -20,-49 -8,-15 -17,-29 -27,-42 -30,-39 -64,-71 -105,-98 -13,-9 -29,-17 -44,-24l-48 -19c8,0 32,8 42,10 15,4 39,13 53,20 43,21 62,32 95,64 25,24 41,49 56,86 5,12 10,27 12,41 1,5 1,10 2,15 4,17 6,45 6,65 0,61 -3,115 -23,165 -6,15 -20,48 -28,61l-27 46c-13,23 -24,41 -38,67 -12,23 -19,37 -27,62l-14 53c-1,6 -3,11 -5,17 -6,20 -18,42 -32,56l13 -31c1,-3 2,-6 3,-9 4,-12 6,-23 9,-35l6 -28c3,-12 6,-24 9,-35 2,-6 4,-12 6,-17 4,-9 9,-23 14,-32 3,-5 5,-9 8,-14 5,-9 11,-18 17,-28l53 -103c20,-44 26,-71 37,-119 1,-5 2,-14 3,-20 1,-3 2,-15 2,-19l1 -48zm-574 -231c-2,3 -6,6 -9,8l-16 17c-2,2 -2,3 -3,5 -1,2 -2,2 -4,4l-21 31c0,1 -1,2 -2,3 -1,2 -2,3 -3,5l-11 22 -17 52c0,2 -1,2 -1,3 -1,3 0,4 -1,7 -2,7 -6,35 -7,42 0,6 -1,8 -3,13 -1,2 -2,5 -2,6 -3,9 -3,14 -4,16 -3,10 -3,15 -5,24 -1,3 -1,1 -2,6 0,6 -2,9 -2,14l-4 28c0,5 1,11 0,16 -1,7 -1,0 -1,14 0,12 0,56 0,64 -2,-1 -2,-2 -3,-4l-5 -16c-1,-3 -1,-4 -2,-6l-8 -35c-1,-1 0,1 -1,-3 0,-1 0,-2 0,-4 0,-5 -1,-2 -1,-6 0,-2 0,-4 0,-7 -1,-3 -1,-1 -2,-6 0,-2 0,-4 0,-6 -1,-3 -1,-1 -1,-6 0,-14 -1,-6 -2,-13 -1,-9 1,-6 -1,-19l0 -42c0,-4 0,-11 0,-14 1,-4 1,-7 1,-12 2,-13 2,-26 4,-39l5 -25c0,-2 0,0 0,-2 1,-10 4,-16 6,-25 10,-31 15,-46 31,-75 28,-50 73,-88 127,-107 30,-10 61,-13 92,-14 14,0 27,1 41,2 5,0 69,6 77,8 -13,1 -26,0 -40,1l-18 2c-3,0 -4,1 -8,1 -8,1 -32,8 -38,11l-32 17c-8,7 -7,3 -15,5 -4,1 -3,1 -9,1 -16,1 -54,16 -65,24 -2,1 -4,3 -6,4 -3,2 -8,6 -11,8zm-142 348l4 14c1,5 2,10 3,15 1,2 2,4 2,7l11 34c1,2 1,1 1,4l4 10c1,2 2,4 3,6 0,2 0,3 1,4 0,1 1,2 1,3 1,3 0,6 1,9 0,2 1,2 2,6 0,5 6,23 8,29 2,5 3,9 5,13l9 18c2,3 1,1 4,6l7 10c2,2 2,3 4,5 2,3 2,3 4,5 3,4 2,1 6,7 2,3 8,8 11,11l17 19c8,8 19,21 24,30 5,8 9,14 12,23 2,5 8,22 9,28 1,3 1,5 2,7l15 66c1,2 1,2 1,4l4 9c0,0 1,2 1,3l3 7c4,9 9,15 16,24 15,18 23,18 31,24 1,10 2,17 5,24 7,16 20,22 35,30l8 3c1,0 2,0 3,1 2,0 4,1 5,2 -1,1 -22,2 -26,3 -8,0 -16,3 -23,5 -31,9 -12,25 -10,32 -4,0 -4,-1 -8,1 -14,5 -25,16 -19,34 3,8 8,14 14,18 5,4 15,9 21,10 -1,0 -1,1 -2,2 -9,2 -19,9 -25,14 -11,8 -23,25 -11,39 13,14 34,7 46,13 -1,2 -11,10 -14,13 -13,16 -9,35 10,42 2,1 3,1 5,2l3 1c0,0 0,0 1,0 3,1 3,6 4,8 3,7 10,10 17,14 10,5 29,9 41,11 10,1 17,3 27,4 4,0 5,1 8,2l28 2c13,0 47,0 59,-2l48 -8c2,0 2,-1 4,-1l16 -4c6,-2 12,-1 9,-10 -5,-2 -10,1 -15,2 -2,1 -5,1 -7,2 -8,2 -30,7 -37,7 -3,0 -5,1 -8,1l-24 2c-10,2 -24,1 -35,1 -8,0 -35,-1 -42,-3 -3,-1 -5,0 -9,-1l-44 -9c-7,-2 -22,-5 -22,-14l18 2c7,1 14,0 21,1 12,2 26,1 39,1 6,0 13,-1 19,-1 12,-1 28,1 40,-2 10,-2 14,-1 18,-2 2,0 1,-1 4,-1l38 -4c1,0 2,0 2,0l10 -3c8,-3 15,-4 23,-9 10,-6 38,-29 26,-40 -7,-6 -25,-5 -36,-6 -12,-1 -26,0 -39,0 -8,0 -24,3 -28,3 -16,1 -29,4 -45,6 -23,3 -40,9 -61,12 -9,1 -30,10 -38,13 -15,6 -14,10 -23,18 -5,-1 -16,-6 -19,-11 0,-4 0,-8 0,-11 2,-7 9,-14 14,-18 14,-11 16,-10 34,-10 15,0 29,0 44,0l20 -1c6,-1 15,0 21,0 7,0 11,-2 21,-2l40 -3c4,0 4,-1 9,-2 8,0 30,-5 37,-7l23 -10c30,-23 -16,-26 -19,-27 -5,-1 -11,-1 -16,-2 -10,-1 -24,-3 -34,-1 -14,3 -27,3 -42,6 -29,6 -59,14 -87,23 -8,2 -18,7 -26,10l-8 4c-7,3 -20,2 -28,1 -1,0 -3,-1 -5,-1 -19,0 -29,0 -27,-22 5,-7 18,-16 27,-20 13,-5 23,-7 38,-3 9,3 21,3 30,5 4,1 6,1 11,1 16,0 29,0 44,0 4,0 7,-1 10,-2 9,-1 22,-2 31,-5 2,-1 3,0 5,-1l50 -13c6,-2 12,-3 18,-5l9 -3c4,-2 9,-4 13,-8 1,-1 0,0 1,-1 3,-3 4,-3 3,-8 -5,-4 -7,-5 -14,-8 -6,-2 -12,-3 -19,-4 -7,-1 -13,-1 -20,0 -3,0 -8,0 -12,0 -4,0 -6,1 -9,1 -4,0 -8,0 -12,0 -4,0 -5,1 -9,2 -11,1 -27,5 -37,8l-43 14c-8,3 -17,5 -26,7l-10 2c-2,1 -8,0 -11,0 -6,0 -14,3 -21,2 -5,-1 -13,-4 -17,-5 -10,-4 -22,-10 -27,-18 0,-3 0,-5 1,-8 4,-14 -2,-18 23,-18 9,0 9,1 14,2 5,0 3,0 7,1l23 2c3,0 6,0 8,0 4,0 1,1 7,2 5,0 11,0 16,0 10,0 8,1 15,2 12,1 37,0 49,0 11,0 21,-1 32,-1 10,0 23,0 33,0 5,0 10,-1 15,-1 13,0 25,-2 38,-4 3,0 3,-1 6,-2 9,-2 17,-6 19,-13 7,-27 -49,-32 -67,-32 -11,0 -9,-1 -15,-2 -11,-1 -40,2 -47,-1 0,-3 5,-6 7,-9l5 -8c1,-1 0,-1 1,-3 8,0 10,-1 17,-3l13 -6c5,-2 11,-2 16,-4 13,-4 28,-11 40,-18 4,-2 8,-5 11,-8l10 -6c1,-1 2,-1 3,-1l6 -4c2,-1 4,-3 6,-4 11,-8 23,-17 31,-28 8,-11 16,-23 22,-36 6,-14 14,-45 17,-62 4,-22 17,-51 27,-70 5,-9 8,-17 14,-26l21 -37c2,-4 5,-8 7,-12l29 -49c24,-47 37,-76 48,-128l2 -17c0,-6 2,-11 2,-18 0,-6 0,-12 1,-18 2,-12 1,-43 1,-58 0,-13 -1,-8 -2,-17 -1,-6 0,-13 -1,-19 -1,-5 -1,-12 -2,-17 -1,-6 -1,-12 -2,-18 -1,-6 -2,-10 -3,-16 -2,-10 -6,-20 -9,-30l-3 -8c0,0 0,0 0,-1l-3 -6c-7,-16 -11,-22 -20,-38l-17 -23c-6,-7 -12,-14 -18,-20 -9,-9 -36,-32 -46,-37 -11,-5 -21,-15 -33,-20 -31,-14 -35,-17 -69,-29l-20 -6c-14,-4 -29,-8 -42,-11 -12,-2 -49,-10 -59,-10 -8,0 -17,-3 -26,-3 -7,0 -12,-2 -18,-2 -6,0 -13,0 -18,-1l-75 -2c-7,0 -10,1 -18,2 -12,0 -23,2 -35,5 -5,1 -11,2 -16,3 -5,2 -9,3 -15,4 -11,3 -35,12 -45,19 0,0 -1,1 -1,1l-2 1c-2,1 -4,2 -6,3 -21,13 -39,30 -54,49l-1 1c0,0 -1,1 -1,1l-16 22c0,0 0,0 0,1l-17 30c-4,9 -8,18 -12,27 -2,6 -5,12 -7,18l-10 39c-3,10 -3,19 -5,29 -1,3 -1,3 -1,8 0,11 -3,24 -3,35 0,26 0,51 2,76 1,8 2,27 4,35 1,2 2,6 2,8 0,3 0,6 1,9 1,4 3,11 3,16z"/>
   <path class="fil1" d="M687 1303c2,1 16,3 20,3 -5,-2 -13,-3 -20,-3 -6,-4 -12,-6 -18,-10 -3,-2 -5,-4 -9,-6l-6 -4c-2,-2 -1,0 -2,-3l13 2c5,1 5,1 8,-3 1,1 1,0 2,1 1,3 4,6 7,8 2,2 6,4 11,5 -1,0 -4,-2 -5,-2 -2,-1 -3,-2 -5,-3 -3,-3 -4,-3 -7,-8 -1,-4 -2,-4 -4,-7l-11 -32c0,-2 0,-3 0,-5 0,-3 -1,-1 -1,-4l-2 -15c-1,-3 -1,-3 -2,-4 -1,-4 0,-6 -1,-10 -1,-4 0,-6 -2,-9 -1,-4 -1,-6 -1,-10l-4 -17c-3,-8 -5,-16 -9,-24l-12 -21c-2,-2 -3,-4 -4,-6 -1,-1 -1,-2 -2,-3l-30 -41c-2,-2 0,0 -1,-1 -1,-2 -3,-4 -4,-6l-20 -35c-5,-9 -15,-29 -17,-37l-39 -104 -5 -27c-1,-5 -2,-1 -2,-8 0,-2 0,-4 0,-6 0,-2 -1,-3 -1,-4l-2 -20c-1,-7 0,-15 -1,-21 -1,-12 -1,-29 -1,-42 0,-7 1,-14 1,-21l5 -27c3,-9 3,-18 7,-27 3,-6 4,-13 7,-19l20 -40 18 -26c2,-2 4,-3 5,-6 1,-2 1,-1 2,-3 1,-1 2,-2 3,-3l38 -35c0,0 1,-2 2,-2 4,-5 21,-14 27,-18l14 -8c3,-1 5,-2 7,-4 2,-1 2,-1 3,-2 2,-1 2,-1 4,-2 3,-1 5,-2 7,-3 2,-1 5,-2 8,-3 3,-1 2,0 4,-1 15,-7 40,-12 56,-15 27,-5 55,-6 83,-5 5,0 6,1 9,1 4,0 8,0 12,1 10,1 32,5 42,8l22 6c4,1 6,2 10,2 2,2 0,1 3,2l-3 -2c0,0 0,0 -1,0l-1 -1c-1,-1 0,0 -1,-2l10 4c3,1 3,1 5,2 1,0 4,1 6,1 0,-5 -3,-6 -6,-8 0,0 0,0 0,0l-6 -5c-2,-2 -4,-4 -7,-6 -2,-1 -3,-1 -4,-2l-11 -8c-5,-3 -4,-4 -7,-5 -3,-2 -6,-2 -9,-4 -2,-1 -2,-1 -4,-2 -2,-1 -3,-1 -4,-2 3,-3 2,-1 5,0l4 2c1,0 2,0 3,0 -4,-3 -13,-4 -19,-6l-34 -6 -30 -2c-8,-2 -16,-1 -24,-1 -4,0 -3,-1 -7,-2 -9,-1 -52,0 -65,0 -6,0 -18,-1 -24,0 -3,1 -1,2 -7,2 -12,0 -22,1 -33,1 -3,2 -8,6 -11,8 -12,7 -5,3 -14,11l-20 15c-20,17 -39,35 -56,54l-23 27c-2,3 -6,8 -8,12l-20 30c-2,3 -3,3 -4,6 -2,5 -5,7 -7,12 -6,15 -15,29 -21,44 -4,11 -7,15 -7,28 0,6 -1,5 -2,8 -1,7 0,22 0,30 0,5 -2,6 -2,18l0 60c0,6 2,8 2,18 0,6 -1,14 1,19 1,3 1,5 1,9l5 25c1,3 0,1 1,3 2,4 2,8 5,15 0,0 1,2 1,2l1 4c0,0 0,0 0,1l1 5c4,11 10,23 16,34l26 44c3,5 10,14 12,19 1,4 0,1 2,3 5,5 -2,-2 1,1l28 44c8,16 17,27 28,41l8 12c5,8 10,17 15,25l8 17c0,0 2,3 2,3 4,8 12,40 13,47 1,4 1,5 2,8 1,4 1,6 2,8 0,3 0,7 0,10 0,4 1,4 2,8 1,16 -2,10 8,21 5,6 11,9 17,13l18 12c3,2 11,6 14,6z"/>
   <path class="fil1" d="M686 958c0,3 0,4 0,6l2 6c4,9 9,27 12,38l4 13c0,2 0,2 1,3l18 77c1,4 2,9 3,14 0,3 1,5 2,7 1,3 0,5 1,8 1,3 1,2 2,7 0,2 0,2 0,4 0,2 1,1 1,3 1,3 0,5 0,8 0,3 1,4 1,7 0,3 0,6 0,8 1,4 1,0 1,9 0,7 2,8 2,14 0,13 1,8 2,14l4 82c4,2 43,-2 47,-3 6,-3 4,-19 4,-29 0,-5 -1,-4 -1,-14l-1 -44c-2,-10 -1,-9 -1,-21l0 -50 12 -121c0,-4 3,-11 3,-19l7 -34c1,-2 1,-1 1,-3 1,-2 0,-5 0,-7 -3,-1 -4,0 -6,-1 -3,-1 -1,-1 -4,-1 -2,0 -4,0 -6,0 -2,0 -1,-1 -4,-1 -11,-3 -13,-3 -23,-7l-5 -2c-4,-2 -10,-6 -15,-9 -10,-6 -7,-7 -13,2 -2,2 -4,5 -5,7 -2,2 -3,5 -6,7l-10 9c-3,2 -8,6 -12,8 -13,5 -8,4 -20,6z"/>
   <path class="fil1" d="M573 1241l-4 -9c-1,-1 -1,-2 -1,-4l-15 -66c-1,-3 -1,-4 -2,-7 -1,-6 -7,-23 -9,-28 -4,-9 -7,-15 -12,-23 -6,-9 -17,-22 -24,-30l-17 -19c-3,-4 -9,-8 -11,-11 -4,-7 -3,-3 -6,-7 -2,-3 -1,-3 -4,-5 -2,-2 -3,-3 -4,-5l-7 -10c-2,-5 -2,-2 -4,-6l-9 -18c-2,-4 -3,-8 -5,-13 -3,-6 -8,-23 -8,-29 0,-4 -1,-4 -2,-6 -1,-3 0,-5 -1,-9 0,-1 -1,-2 -1,-3 0,-2 0,-3 -1,-4 0,-2 -2,-4 -3,-6l-4 -10c-1,-2 -1,-1 -1,-4l-11 -34c-1,-3 -2,-4 -2,-7 -1,-5 -2,-10 -3,-15l-4 -14c0,3 1,4 1,8 0,4 -4,8 0,20 2,6 5,35 8,40 2,4 2,15 6,26 4,10 3,10 5,18 0,1 0,2 1,2 0,0 0,0 0,1l11 41c1,2 0,5 1,8 1,8 3,11 5,18 2,6 5,20 5,26l2 1c0,6 0,5 2,9 2,6 2,12 5,21l8 28c2,3 2,3 3,7 3,12 7,13 9,22l18 33c2,3 3,3 5,6l7 8c3,4 12,14 17,19l19 19c4,4 -2,0 7,6 2,2 3,3 5,5 1,1 1,1 2,2l5 3c5,4 12,12 18,12l2 -3z"/>
   <path class="fil1" d="M881 1231l-1 3 -2 5 -1 3 -1 2 -1 2 -2 4 2 -4 1 -2 1 -2 1 -3c2,-2 1,-1 2,-5 1,-2 1,0 1,-3l2 -3c3,1 1,1 4,2l8 -6c0,0 1,-1 1,-1l4 -4c0,0 0,0 1,0 0,0 0,0 1,0 0,6 -6,13 -7,19 -2,2 -1,1 -2,3 -1,2 -2,2 -2,4l-1 1 -1 2 -1 1c-2,2 -4,4 -6,6 -2,2 -4,4 -6,6l-1 1 -1 1 -1 1c-5,0 -1,1 -3,-2 1,-1 1,-3 2,-5 -1,1 -3,7 -3,9l4 -2 1 -1 1 -1 1 -1c3,-1 11,-9 12,-12l1 -1 1 -2 1 -1c2,-2 4,-4 5,-8 0,0 0,-1 0,-1 0,0 0,-1 1,-1 3,-6 10,-20 10,-26l7 -32c1,-3 1,-1 2,-4l12 -39 15 -29c2,-3 3,-4 4,-7l28 -55c0,0 0,0 0,-1 1,-2 1,-2 2,-4 1,-3 2,-5 4,-8l7 -17c0,0 0,0 0,-1l3 -6c2,-6 3,-12 9,-26 1,-3 2,-5 4,-7 1,-2 1,-3 2,-4 1,-3 1,-2 2,-4 1,-2 1,-2 1,-4l16 -52c1,-3 1,-1 1,-5 0,-3 2,-6 3,-9 0,-2 0,-3 1,-5 1,-3 1,-1 1,-4 0,-3 0,-2 1,-5l4 -18c0,-2 0,-3 1,-5l2 -8c1,-3 1,-6 2,-10 1,-5 1,-14 3,-20l3 -20c0,-5 1,-5 2,-9 0,-4 0,-8 0,-12 0,-4 1,-5 1,-9 0,-4 0,-7 0,-11 2,-14 1,-29 1,-44 0,-7 -2,-38 -3,-42l1 20c0,0 0,0 -1,-1l-13 -43c-2,-3 -2,-1 -3,-6 -1,-3 -2,-4 -3,-6 -7,2 -4,-11 -7,-16 2,18 4,21 5,42 2,30 0,42 0,69 0,8 0,15 -1,23 -1,18 -4,38 -5,54l-3 20c0,6 -1,3 -2,11l-5 24c-1,3 -1,2 -1,4 -1,3 0,2 -1,5l-8 28c-1,2 -1,3 -2,4l-24 71c-1,3 -2,7 -3,9 -1,2 -2,2 -2,4 -1,2 0,3 -1,5l-12 33c0,0 0,0 0,1l-9 22c-1,1 -1,3 -2,5l-32 87c-1,3 -2,5 -3,8l-8 22c0,1 -1,3 -2,4l-13 36c-2,5 -6,11 -6,18z"/>
   <path class="fil1" d="M397 693c0,5 -1,7 -1,12 -1,3 0,10 0,14l0 42c3,13 1,11 1,19 1,7 1,-2 2,13 0,5 0,3 1,6 1,2 0,3 0,6 0,5 1,3 2,6 0,2 0,4 0,7 1,4 1,0 1,6 0,1 0,3 0,4 0,3 0,1 1,3l8 35c1,2 1,3 2,6l5 16c1,2 1,3 3,4 1,-8 0,-52 0,-64 0,-14 0,-7 1,-14 1,-5 0,-11 0,-16l4 -28c0,-5 1,-8 2,-14 0,-5 1,-3 2,-6 2,-9 2,-14 5,-24 1,-2 1,-7 4,-16 0,-2 1,-4 2,-6 2,-5 2,-8 3,-13 1,-7 4,-35 7,-42 1,-3 0,-4 1,-7 0,-1 1,-1 1,-3l17 -52 11 -22c1,-2 2,-3 3,-5 1,-1 1,-2 2,-3l21 -31c1,-1 2,-2 4,-4 2,-2 1,-3 3,-5l16 -17c3,-2 7,-5 9,-8 -10,7 -21,19 -28,30 -2,3 -4,4 -6,6 -3,5 1,1 -5,6 -1,1 -1,1 -2,2 -3,4 1,1 -3,3 1,-5 3,-2 3,-8 -5,0 -2,0 -3,1l-1 1c0,0 0,0 0,0 0,0 0,0 0,0 0,0 0,0 0,0l-15 18c0,0 0,0 0,1l-5 7c0,0 -1,1 -1,1 -4,4 -3,4 -5,7 -3,3 -6,6 -8,9 -1,2 -2,3 -3,5 -6,9 -5,5 -10,15 -2,4 -6,7 -7,10l-2 3c-1,1 -1,1 -2,3l-6 11c-6,10 -4,7 -6,12 -1,2 -2,3 -3,5 0,1 -1,2 -1,3l-3 9c-1,2 -2,3 -3,6l-7 22c-4,11 -2,7 -3,13 0,0 0,0 0,1l-2 3c-1,1 0,2 -1,3l-1 3c0,-3 0,-6 -1,-8z"/>
   <path class="fil1" d="M456 1000l1 1 1 1c1,1 1,0 2,2 1,3 2,5 4,8l16 21c2,2 3,4 5,6l19 19c5,7 13,15 14,16 1,2 1,2 2,4 3,3 1,-1 6,7 11,16 14,19 24,37 1,2 3,7 4,9l14 52c0,2 0,4 1,6l10 39c4,12 10,25 16,33l1 1 1 1 1 1 1 1c0,1 0,1 1,1l1 1 1 1 1 1 1 1 1 1 -1 -1 -1 -1 -1 -1 -1 -1 -1 -1 -1 -1c0,-1 0,-1 -1,-1l-1 -1 -1 -1 -1 -1c0,-4 0,-1 1,-3 2,1 2,2 4,4 4,3 12,6 17,6 0,0 0,-1 0,-1 0,1 0,-1 1,-1 0,-1 0,-1 1,-2 1,2 0,0 2,2 0,0 1,0 2,2 0,1 0,1 1,1l1 1 -1 -1 -1 -1c0,-3 -2,-2 -4,-4 -1,-3 -7,-10 -11,-16 -3,-6 -7,-12 -9,-18l-7 -27c0,-2 0,-4 -1,-6 -1,-2 -1,-2 -1,-5l-3 -18c-1,-2 0,-4 -1,-6l-6 -21c-3,-9 -4,-15 -10,-25 -1,-2 -1,-2 -2,-5 0,-1 -1,-2 -1,-2l-8 -16c-3,-6 -4,-6 -9,-11 -2,-3 -4,-4 -7,-7 -2,-2 -2,-2 -3,-4l-11 -10c-3,-3 -4,-5 -7,-7 -1,-1 -3,-2 -4,-3l-36 -40 -23 -32 -1 0 -1 -1 -1 -2 -1 -1c-4,-3 -3,-5 -5,-8 1,3 2,3 2,6l-4 1c2,2 1,1 3,5l2 6c0,0 0,1 1,1l2 8z"/>
   <path class="fil1" d="M606 846c-5,2 -4,0 -8,4 -4,4 -7,10 -7,16l0 18c0,4 1,2 1,5 1,4 0,3 3,9 1,3 2,6 3,8l4 7c3,5 3,3 5,7 1,2 1,2 2,3 9,11 23,18 36,23 0,0 0,0 1,0l1 0c3,1 21,4 23,3 0,0 2,0 1,-3l-11 -30c-1,-2 -1,-2 -2,-4 -1,-2 -1,-2 -2,-4l-2 -6c0,0 0,0 0,-1 -8,-19 -8,-20 -22,-39 -4,-6 -12,-14 -18,-16 -6,-2 -4,-3 -9,-1z"/>
   <path class="fil1" d="M462 641c-1,0 -1,0 -1,1l-1 1 1 -1c1,0 1,0 1,-1 2,0 3,-1 5,-1 1,-2 0,-1 2,-2l12 -21c0,0 0,0 0,-1 0,0 0,0 0,-1 1,-1 1,-2 2,-3l1 -2c0,0 1,-1 1,-1l31 -43c3,-3 10,-13 15,-17l4 -4c6,-8 6,-7 11,-12l21 -21c0,0 0,0 0,0l46 -41c-2,-2 -2,2 -2,-2 -1,-1 0,0 -1,-2 -3,1 -4,0 -8,2l-8 2c-5,2 -10,3 -15,5l-19 11c-1,1 -4,3 -6,4 -3,2 -4,2 -6,4 -2,2 -3,3 -5,5 -6,4 -16,15 -20,20l-30 41c-3,5 -14,28 -16,34 -3,9 -5,12 -8,23l-3 12c0,0 0,0 0,1l-2 12z"/>
   <path class="fil1" d="M743 895l-1 1 -1 1 1 -1 1 -1 9 -26c3,-15 5,-27 5,-42 0,-8 1,-35 0,-41l-1 -4c-2,-5 -2,-7 -6,-10 -13,-13 -26,12 -31,24 -3,9 -3,9 -4,17 -1,3 -1,3 -1,9l0 21c0,5 1,5 2,9l16 36c1,1 1,1 2,3l3 3 1 2 1 1 1 1 1 1 1 1 -1 -1 -1 -1 -1 -1c0,-1 0,-1 -1,-1 0,-3 0,-1 -1,-2 0,-3 2,0 5,0 3,-2 0,0 3,-3 0,4 -1,2 -1,6z"/>
   <path class="fil1" d="M527 1050c-1,-3 -1,-3 -2,-5l-4 -6c0,0 0,0 0,-1l-3 -5c-1,-1 -1,-1 -1,-2 -1,-1 -1,-2 -2,-4l-48 -81c-3,-8 -12,-28 -14,-35l-2 -7c-1,-3 -1,0 -1,-4l-3 -14c0,-2 0,-3 -1,-5 -1,-3 -1,0 -1,-4l-2 -21c-3,-9 -1,-10 -2,-21l0 -58c0,-6 1,-8 -2,-11 -1,2 -1,3 -1,5 0,8 -2,6 -2,16 0,15 -2,16 -2,23l0 95c0,2 0,4 1,5l1 3c3,15 -6,8 16,46l14 22c1,1 1,2 2,4 0,0 0,0 0,1 0,0 0,0 0,0 0,0 0,0 0,0l4 5c3,5 2,5 8,11l3 3c0,0 1,1 1,1l29 34c4,5 9,10 14,11z"/>
   <path class="fil1" d="M887 863c-12,4 -23,17 -30,27 -3,5 -4,5 -6,8 -6,9 -13,11 -20,24 0,1 -3,6 -3,6 -1,3 0,5 4,5 13,-1 24,-1 36,-1 5,0 5,-1 8,-2 2,0 3,0 5,0l12 -4c0,0 1,-1 1,-1l7 -6 6 -14c2,-8 4,-19 2,-26 -2,-7 -5,-15 -13,-16 -3,0 -7,0 -9,1z"/>
   <path class="fil2" d="M565 325c3,3 1,2 8,3 4,-5 2,-4 1,-12l-13 -85c0,-2 -1,-2 -1,-4 0,-3 0,-4 -1,-6 -1,-3 -1,-7 -2,-10l-37 -171c-2,-7 -3,-12 -5,-19 -2,-6 -3,-15 -6,-19 -14,-2 -8,9 -4,24l27 109c3,12 4,29 8,41l8 42c0,2 1,1 1,4l15 103z"/>
   <path class="fil2" d="M1178 554c0,3 -1,9 5,9 3,0 19,-11 23,-14l27 -18c3,-2 6,-4 8,-5l23 -15c2,-1 1,0 2,-1 3,-3 4,-3 8,-5l62 -40c0,0 0,0 0,0 27,-21 58,-41 90,-55 4,-2 17,-5 18,-9 2,-5 -3,-9 -8,-7l-32 14c0,0 0,0 -1,0 0,0 -1,0 -1,1 -7,3 -13,8 -19,11 -1,1 -1,1 -2,1 -3,1 -6,3 -8,5 -5,4 -11,7 -17,11 -10,7 -20,15 -30,21l-17 11c0,0 0,0 -1,0l-26 17c-4,2 -5,3 -8,5l-27 18c0,0 0,0 0,0l-4 3c-1,1 0,0 -2,1l-6 4c0,0 0,0 -1,0l-31 21c0,0 0,0 -1,0l-18 11c-3,2 -6,4 -8,5z"/>
   <path class="fil2" d="M191 854l-104 -54c-6,-3 -11,-6 -17,-9l-52 -27c-13,-5 -13,-8 -19,-2l1 5c4,3 12,6 17,8l101 53c6,2 27,15 34,17l17 9c5,3 11,6 16,9 3,2 5,3 8,4 3,1 4,3 8,4 18,8 19,8 37,15 8,3 34,11 42,8 4,-12 -13,-8 -21,-11 -3,-1 -1,-1 -5,-2 -13,-3 -17,-6 -28,-11 -7,-3 -11,-6 -17,-9 -6,-3 -12,-6 -18,-9z"/>
   <path class="fil2" d="M952 326c0,10 -2,14 8,14 5,-2 1,-16 4,-29 1,-7 1,-21 4,-29l3 -19c9,-38 17,-64 34,-97 10,-20 29,-49 43,-66 4,-5 9,-9 7,-15 -1,-2 -3,-4 -6,-3 -1,1 -4,4 -5,6l-8 11c-20,26 -37,53 -50,85 -7,17 -12,31 -17,48 -4,14 -11,41 -12,54 0,4 -1,6 -2,9 0,4 0,7 0,11 -1,7 -2,12 -2,21z"/>
   <path class="fil2" d="M1325 982c31,1 76,0 110,0 11,0 24,-1 35,-2 5,-6 1,-10 -4,-10 -5,0 -12,1 -18,1 -6,0 -11,1 -18,1 -18,0 -103,1 -110,0 -8,-1 -45,-1 -54,-1 -3,0 -5,-1 -8,-1 -1,0 -3,0 -5,0 -10,-1 -14,0 -22,-1 -4,0 -6,-1 -17,-2 -10,0 -26,-3 -20,7 3,5 13,2 24,4l8 1c6,1 20,0 27,1l70 3z"/>
   <path class="fil2" d="M1228 1346c-13,-7 -36,-23 -45,-27l-29 -18c-6,-4 -11,-8 -16,-7 -7,6 -1,9 3,11 6,4 19,13 26,16l144 88c7,3 13,9 19,12 4,1 4,2 9,5 1,1 3,2 4,2 8,4 5,4 11,7 3,2 5,2 8,4 4,2 5,3 10,1 3,-8 -2,-7 -11,-13 -8,-5 -23,-13 -29,-18 -5,-3 -9,-5 -15,-9l-74 -45c-5,-3 -9,-6 -14,-9z"/>
   <path class="fil1" d="M984 1044l-18 36c-4,8 -11,17 -14,26l-18 36c-1,3 -3,7 -4,10 -1,2 -1,3 -2,5l-5 16c-1,3 -1,8 -2,12 -1,4 -2,7 -3,11 -1,3 0,6 -1,9 -1,3 -1,6 -2,9 -1,3 -2,7 -3,11l-1 1 1 -1c1,-2 2,-7 3,-11 1,-2 2,-5 2,-8 1,-3 1,-7 1,-10 3,0 2,-1 4,2l2 -1c0,0 0,0 1,0 4,-3 2,-3 5,-6 5,-6 4,-2 10,-12l9 -14 0 6c-1,0 -1,-1 -1,2l1 -2 10 -36c0,0 0,0 0,-1l15 -41c1,-2 1,-4 2,-5 1,-2 0,-1 1,-2l1 -2c0,0 0,0 0,-1l8 -18c7,-15 13,-27 22,-42 4,-7 7,-12 11,-19 -2,1 -7,11 -8,14 -7,14 -14,22 -20,37l-3 6c0,0 0,3 -1,1 0,0 0,0 0,1 0,-4 1,-6 1,-10 0,-5 -2,-3 -2,-3 -1,0 0,1 -1,0 1,-3 2,-2 1,-4z"/>
   <path class="fil2" d="M351 453c-17,-11 -33,-24 -47,-38 -10,-9 -22,-22 -31,-32 -10,-11 -28,-34 -36,-48l-16 -26c-4,-6 -10,-23 -16,-26 -13,1 -3,14 4,27l5 8c11,18 15,26 29,45 21,26 26,33 51,57 8,8 25,22 36,30 5,4 19,17 26,16 5,-7 2,-9 -4,-13z"/>
   <path class="fil2" d="M217 1343c4,2 4,2 9,0l7 -3c0,0 0,0 1,0l51 -29c3,-1 0,0 2,-1 1,-1 2,-1 4,-2l55 -32 0 -5c-4,-3 -4,-4 -9,0l-25 14c-11,6 -21,12 -32,18 -6,3 -11,6 -17,9l-25 14c-13,8 -22,8 -20,18z"/>
   <path class="fil1" d="M824 453l6 1c-2,-1 -3,-1 -6,-1 -2,-1 -6,0 -9,-1 -6,-1 -3,-2 -5,-4 -3,-3 2,1 -1,-1l-7 -2c-1,0 0,0 -2,0 -1,0 -2,0 -4,0 -5,-1 -11,-3 -16,-4 -6,-1 -11,-1 -16,-2 -20,-4 -51,-2 -71,-1 -1,-1 -2,2 0,-2 -6,1 -25,7 -26,14 4,2 31,0 38,-1 13,0 28,0 41,0l39 2c7,1 13,1 20,1 9,1 3,1 19,2z"/>
   <path class="fil1" d="M587 1154l6 22c2,4 -1,1 2,8 1,3 -1,1 2,9 1,2 0,4 0,7 1,4 1,1 2,5 2,8 9,31 14,35 0,-4 0,-1 1,-2l3 2c1,-2 0,-2 3,-2 -3,-6 0,-7 -2,-12 -1,-3 -1,-1 -1,-5l-4 -18c-3,-10 -4,-14 -8,-26l-1 -2c-1,-2 -1,-4 -2,-5l-10 -20c-1,3 -3,4 -5,5z"/>
   <path class="fil3" d="M454 980l1 1 1 2 1 1 1 0 -1 0 -1 -1 -1 -2 -1 -1c-4,-7 -5,-12 -10,-12 0,4 3,13 5,16l7 15 1 1 1 1 2 2c0,-2 0,-1 -2,-2l-1 -1 -1 -1 -2 -8c0,0 0,-1 -1,-1l-2 -6c-2,-4 -1,-4 -3,-5l4 -1c-1,-2 -1,-3 -2,-6 3,3 2,6 5,8z"/>
   <path class="fil3" d="M462 641c0,1 0,1 -1,1l-1 1 0 7c3,-1 1,1 3,-2l3 -6c0,0 0,0 0,-1l1 -2c-2,1 -3,1 -5,1z"/>
   <path class="fil3" d="M736 892c1,0 1,-1 1,2 1,0 1,0 1,1l1 1 1 1 1 1 1 0 1 -1 1 -1c0,-4 1,-2 1,-6 -2,3 0,1 -3,3 -3,0 -5,-3 -5,0z"/>
  </g>
 </g>
</svg>
