<?xml version="1.0" encoding="UTF-8"?>
<!DOCTYPE svg PUBLIC "-//W3C//DTD SVG 1.1//EN" "http://www.w3.org/Graphics/SVG/1.1/DTD/svg11.dtd">
<!-- Creator: CorelDRAW 2017 -->
<svg xmlns="http://www.w3.org/2000/svg" xml:space="preserve" width="148.091mm" height="35.3083mm" version="1.1" style="shape-rendering:geometricPrecision; text-rendering:geometricPrecision; image-rendering:optimizeQuality; fill-rule:evenodd; clip-rule:evenodd"
viewBox="0 0 14975 3570"
 xmlns:xlink="http://www.w3.org/1999/xlink">
 <defs>
  <style type="text/css">
   <![CDATA[
    .fil0 {fill:#E31E24;fill-rule:nonzero}
   ]]>
  </style>
 </defs>
 <g id="Слой_x0020_1">
  <metadata id="CorelCorpID_0Corel-Layer"/>
  <path class="fil0" d="M94 1505c-16,33 -42,86 -94,96 0,0 0,-292 0,-292 163,-405 231,-577 543,-871 169,-159 379,-285 595,-361 210,-73 422,-98 603,-58 172,38 315,136 436,264 118,126 216,281 299,437 121,226 212,454 294,657 31,76 60,149 88,216 52,124 104,232 159,331 55,98 113,187 181,273 69,88 146,172 229,248 79,72 162,137 247,190 86,53 173,94 264,118 87,23 177,32 271,23 93,-9 191,-36 285,-88 86,-48 173,-118 255,-217 102,-123 195,-289 295,-465 92,-164 190,-337 307,-499 134,-186 294,-357 462,-481 170,-126 348,-206 520,-213 147,-7 280,46 389,125 126,93 222,224 265,339 74,196 -1,346 -95,535l-27 53c-50,102 -102,217 -141,341 -39,123 -64,255 -62,391 2,144 36,294 106,425 62,115 152,216 275,286 123,71 278,112 455,129 196,19 418,8 651,-24 238,-33 485,-87 695,-168 163,-63 304,-143 397,-241 110,-116 164,-262 188,-420 25,-165 17,-339 4,-505l-6 -71c-25,-316 -48,-595 188,-813 135,-125 343,-222 558,-277 209,-54 428,-69 590,-31 260,61 361,256 460,447 17,34 35,67 54,101 78,139 172,262 262,379 47,60 92,120 130,173 46,65 90,135 135,205 68,107 136,214 224,323 71,87 154,175 257,256 103,81 225,156 373,217 146,61 317,110 492,144 183,36 368,57 531,59 151,2 280,-12 390,-45 97,-29 182,-77 260,-146 184,-164 333,-444 481,-725 18,-33 1,135 52,126 51,-8 126,-54 108,-21 -156,294 -287,453 -501,644 -121,108 -258,183 -416,231 -145,44 -305,62 -483,60 -175,-2 -371,-24 -562,-62 -182,-36 -361,-87 -513,-150 -156,-65 -284,-143 -390,-227 -106,-84 -192,-174 -266,-264 -88,-109 -158,-219 -227,-327 -42,-67 -85,-133 -134,-203 -43,-61 -85,-116 -129,-172 -91,-118 -186,-241 -266,-385 -18,-32 -36,-67 -54,-102 -93,-179 -188,-363 -413,-416 -130,-31 -307,-19 -476,25 -153,39 -296,104 -382,184 -181,167 -160,427 -137,721l6 71c13,169 21,348 -4,518 -27,176 -91,345 -227,488 -131,138 -321,246 -538,330 -242,94 -519,155 -782,192 -251,35 -491,46 -705,26 -195,-19 -366,-63 -500,-141 -132,-76 -229,-184 -295,-307 -74,-138 -109,-294 -111,-446 -2,-144 25,-283 66,-412 41,-129 94,-249 146,-354l27 -54c86,-173 154,-309 89,-483 -40,-108 -130,-230 -248,-317 -92,-68 -200,-113 -309,-108 -95,4 -201,54 -307,133 -142,105 -283,257 -404,425 -112,155 -207,324 -298,485 -103,183 -200,354 -311,489 -106,129 -226,224 -350,293 -149,83 -300,125 -439,139 -121,12 -233,2 -337,-27 -101,-27 -195,-71 -287,-128 -89,-55 -175,-122 -256,-196 -85,-78 -164,-165 -234,-254 -68,-87 -128,-178 -184,-279 -56,-100 -108,-209 -161,-335 -29,-69 -58,-141 -89,-217 -81,-203 -172,-429 -292,-653 -82,-153 -177,-305 -292,-427 -112,-119 -242,-210 -396,-243 -141,-31 -301,-13 -457,41 -161,56 -320,153 -451,276 -329,310 -413,664 -596,1048z"/>
 </g>
</svg>
